<svg id="a1b88308-023c-4d54-b03f-87bf5b0d0bd6" xmlns="http://www.w3.org/2000/svg" viewBox="0 0 964.8 722.17"><defs><style>.cls-1{fill:#f2f2f2;}.cls-2{fill:#f5454e;}.cls-3{fill:#3f3d56;}.cls-4{fill:#d0cde1;}.cls-5{fill:#ffb9b9;}.cls-6{fill:#2f2e41;}.cls-7{opacity:0.1;}.cls-10,.cls-7{isolation:isolate;}.cls-8{fill:none;stroke:#3f3d56;stroke-miterlimit:10;}.cls-9{fill:#575a89;}.cls-10{font-size:32.42px;fill:#341e00;font-family:ChangaOne, Changa One;}</style></defs><title>register1</title><circle class="cls-1" cx="123" cy="415.9" r="123"/><circle class="cls-2" cx="143" cy="397.9" r="123"/><rect class="cls-3" x="171.9" y="652.6" width="158.4" height="1.9"/><path class="cls-3" d="M251,654.9c-84.4,0-153-68.6-153-153s68.6-153,153-153,153,68.6,153,153S335.4,654.9,251,654.9Zm0-304c-83.3,0-151,67.7-151,151s67.7,151,151,151,151-67.7,151-151-67.7-151-151-151Z"/><path class="cls-3" d="M687.9,169.2H684V62A62,62,0,0,0,622,0H394.9a62,62,0,0,0-62,62h0V650a62,62,0,0,0,62,62H622a62,62,0,0,0,62-62h0V245.5h3.9Z"/><rect class="cls-3" x="292.3" y="710.2" width="672.5" height="2.4"/><path class="cls-2" d="M623,17.6H593.4a22,22,0,0,1-12.1,28.7,21.51,21.51,0,0,1-8.3,1.6H442.9a22,22,0,0,1-22-22,23.55,23.55,0,0,1,1.6-8.3H394.8a46.26,46.26,0,0,0-46.3,46.3V651.1a46.26,46.26,0,0,0,46.3,46.3H623a46.26,46.26,0,0,0,46.3-46.3h0V63.9A46.26,46.26,0,0,0,623,17.6ZM618,290a12,12,0,0,1-12,12H548a12,12,0,0,1-12-12v-3a12,12,0,0,1,12-12h58a12,12,0,0,1,12,12Zm6.5-53a12,12,0,0,1-12,12h-208a12,12,0,0,1-12-12v-3a12,12,0,0,1,12-12h208a12,12,0,0,1,12,12Zm0-53a12,12,0,0,1-12,12h-208a12,12,0,0,1-12-12v-3a12,12,0,0,1,12-12h208a12,12,0,0,1,12,12Zm0-53a12,12,0,0,1-12,12h-208a12,12,0,0,1-12-12v-3a12,12,0,0,1,12-12h208a12,12,0,0,1,12,12Z"/><circle class="cls-4" cx="410" cy="236" r="7"/><circle class="cls-4" cx="433" cy="236" r="7"/><circle class="cls-4" cx="456" cy="236" r="7"/><circle class="cls-4" cx="479" cy="236" r="7"/><circle class="cls-4" cx="554" cy="289" r="7"/><circle class="cls-4" cx="577" cy="289" r="7"/><circle class="cls-4" cx="600" cy="289" r="7"/><path class="cls-4" d="M395.9,413c-7.3-4.4-16-4-19.4-3.7,1.3,3.1,5.1,11,12.4,15.4s16,4,19.4,3.7C407,425.3,403.2,417.4,395.9,413Z"/><path class="cls-4" d="M430.1,499.8H384.6a10.2,10.2,0,0,0,0,20.4h45.5a10.2,10.2,0,0,0,0-20.4Z"/><path class="cls-4" d="M635.9,391.8H381.1a22.58,22.58,0,0,0-22.6,22.6h0V538.6a22.58,22.58,0,0,0,22.6,22.6H635.9a22.58,22.58,0,0,0,22.6-22.6h0V414.4a22.58,22.58,0,0,0-22.6-22.6ZM374.8,407.2c.5-.1,12.4-2.1,22.3,3.8s13.7,17.4,13.8,17.9l.4,1.2-1.3.2a33.93,33.93,0,0,1-5.5.4c-4.5,0-11-.7-16.8-4.2-9.9-5.9-13.7-17.4-13.8-17.9l-.4-1.2Zm55.3,115.3H384.6a12.5,12.5,0,0,1,0-25h45.5a12.5,12.5,0,0,1,0,25Zm206.8-2.2a13.61,13.61,0,0,1-13.6,13.6H589.2a13.61,13.61,0,0,1-13.6-13.6V499.8a13.61,13.61,0,0,1,13.6-13.6h34.1a13.61,13.61,0,0,1,13.6,13.6Z"/><path class="cls-4" d="M600,516.3H585.2a4,4,0,0,0,0,8H600a4,4,0,0,0,4-4A4.08,4.08,0,0,0,600,516.3Zm0,5.7H585.2a1.7,1.7,0,0,1,0-3.4H600a1.7,1.7,0,1,1,0,3.4Z"/><path class="cls-4" d="M627.3,516.3H612.5a4,4,0,0,0,0,8h14.8a4,4,0,0,0,4-4,4.15,4.15,0,0,0-4-4Zm0,5.7H612.5a1.7,1.7,0,1,1,0-3.4h14.8a1.7,1.7,0,1,1,0,3.4Z"/><path class="cls-4" d="M600,506H585.2a4,4,0,0,0,0,8H600a4,4,0,0,0,0-8Zm0,5.7H585.2a1.7,1.7,0,0,1,0-3.4H600a1.75,1.75,0,0,1,1.7,1.7A1.69,1.69,0,0,1,600,511.7Z"/><path class="cls-4" d="M627.3,506H612.5a4,4,0,0,0,0,8h14.8a4,4,0,0,0,4-4,4.15,4.15,0,0,0-4-4Zm0,5.7H612.5a1.7,1.7,0,0,1,0-3.4h14.8A1.75,1.75,0,0,1,629,510a1.69,1.69,0,0,1-1.7,1.7Z"/><path class="cls-4" d="M600,495.8H585.2a4,4,0,0,0,0,8H600a4,4,0,0,0,0-8Zm0,5.7H585.2a1.7,1.7,0,0,1,0-3.4H600a1.7,1.7,0,1,1,0,3.4Z"/><path class="cls-4" d="M627.3,495.8H612.5a4,4,0,0,0,0,8h14.8a4,4,0,0,0,4-4,4.15,4.15,0,0,0-4-4Zm0,5.7H612.5a1.7,1.7,0,0,1,0-3.4h14.8a1.7,1.7,0,1,1,0,3.4Z"/><rect class="cls-1" x="809" y="32" width="28" height="28"/><rect class="cls-2" x="803" y="39" width="28" height="28"/><path class="cls-3" d="M776,49h46V95H776Zm44,2H778V93h42Z"/><rect class="cls-1" x="262" y="263" width="28" height="28"/><rect class="cls-2" x="268" y="256" width="28" height="28"/><path class="cls-3" d="M323,274H277V228h46Zm-44-2h42V230H279Z"/><path class="cls-5" d="M738,421.8s-17.4,36.3-5.8,37.8,14.5-32.7,14.5-32.7Z"/><polygon class="cls-5" points="804.2 654.5 792.5 675.1 813.6 688.3 818.7 663.9 804.2 654.5"/><path class="cls-6" d="M799.2,677.9s-6.4-10.4-8.7-8.7-11.8,9.3-11.8,9.3l-12.4,11.9s-41.9,4.4-15.3,19.1,41.4,2.5,41.4,2.5,37.3,1.9,36.7-8.5-12.6-26.9-12.6-26.9S801.3,686.9,799.2,677.9Z"/><path class="cls-7" d="M799.2,677.9s-6.4-10.4-8.7-8.7-11.8,9.3-11.8,9.3l-12.4,11.9s-41.9,4.4-15.3,19.1,41.4,2.5,41.4,2.5,37.3,1.9,36.7-8.5-12.6-26.9-12.6-26.9S801.3,686.9,799.2,677.9Z"/><path class="cls-6" d="M855.8,421.5,844.9,553.4s-.4,78.9-12,94.1-12,22.9-12,22.9l-24-12.4s8-.7,4.4-5.8-14.5,0-4.4-7.3,12.4-7.5,9.8-10.7a17.24,17.24,0,0,1-3.3-6.8l6.5-81.4L797.5,404.2Z"/><path class="cls-7" d="M855.8,421.5,844.9,553.4s-.4,78.9-12,94.1-12,22.9-12,22.9l-24-12.4s8-.7,4.4-5.8-14.5,0-4.4-7.3,12.4-7.5,9.8-10.7a17.24,17.24,0,0,1-3.3-6.8l6.5-81.4L797.5,404.2Z"/><path class="cls-8" d="M839.1,670.5"/><polygon class="cls-5" points="826 654.5 836.2 681.4 865.2 670.5 847.1 651.6 826 654.5"/><path class="cls-6" d="M840.4,669.8s-10.9-6.8-12.2-4.1-6.8,14.3-6.8,14.3l-6.1,17s-37.3,23.8-5.4,25.1,40.1-17,40.1-17,36-15.6,30.6-25.1S856,660.6,856,660.6,846.5,677.3,840.4,669.8Z"/><path class="cls-6" d="M763.5,421.8l-5.8,121.4S786,623.9,810.8,637c0,0,0,16,5.8,18.9a15,15,0,0,1,7.3,8.7l32-8s-8-8-5.1-11.6-9.5-11.6-9.5-11.6l-32-77.8s-5.1-2.2-6.5-9.5-4.4-7.3,2.9-8.7,7.3-8.7,7.3-8.7l24-110.5Z"/><circle class="cls-5" cx="789.6" cy="202.3" r="29.1"/><path class="cls-5" d="M815.4,204.1s2.2,37.1,5.1,40.7-30.5,2.9-30.5,2.9,2.2-31.3,0-34.2S815.4,204.1,815.4,204.1Z"/><path class="cls-9" d="M825.3,233.6s-27.6-2.9-37.8,5.8a67.84,67.84,0,0,1-10.4,7.4,21.62,21.62,0,0,0-10.4,17.7l-5.4,165.3s82.1-7.3,97.4,0c0,0,.7-16.7,2.2-18.9,1.1-1.6,2.9-65,3.8-99.2a75.38,75.38,0,0,0-19.1-52.6c-4.4-4.9-9.3-9-14.5-11C831.1,248.1,832.5,234.3,825.3,233.6Z"/><path class="cls-9" d="M780.9,248.1h0a21.41,21.41,0,0,0-15.8,17.8l-10.4,73.8-14.5,58.9s-7.3,6.5-4.4,10.2-3.6,18.9-3.6,18.9l18.2,5.8s2.2-15.3,5.8-16c3.2-.6,39-96.2,47.6-119.3,1.2-3.2,1.9-5,1.9-5S804.2,244.5,780.9,248.1Z"/><path class="cls-7" d="M805.3,292.8l-44,119S803.8,331.3,805.3,292.8Z"/><path class="cls-6" d="M804.8,210.9c-2.5-.1-4.9.7-7.3,1-8.7,1.2-17.8-5.2-19.8-13.8a12.6,12.6,0,0,0-1-3.3c-1.3-2.2-4.4-2.6-6.9-2.1s-4.9,1.7-7.5,1.8a11.36,11.36,0,0,1-9.9-5.6,19.22,19.22,0,0,1-2.4-11.5l1.9,2a9.64,9.64,0,0,0,.9-5.3,6.19,6.19,0,0,1,5.8,1.5c1.7.2.4-3.1,1.7-4.2a2.82,2.82,0,0,1,2-.4c3.6,0,6.5-2.7,9.3-4.9a39.9,39.9,0,0,1,16.6-7.6c4-.8,8.3-.9,12.1.6a26.54,26.54,0,0,1,8.2,5.8c6,5.8,11.3,12.5,13.8,20.4a34.58,34.58,0,0,1,.2,19.9c-1,3.4-4,15-8.5,15.3C808.4,221,811.8,211.3,804.8,210.9Z"/><text class="cls-10" transform="translate(456.01 427.88)">ADMIN</text></svg>