<svg xmlns="http://www.w3.org/2000/svg" viewBox="0 0 900.4 465"><defs><style>.cls-1{fill:#fff;}.cls-2,.cls-3,.cls-5{fill:#0e0800;}.cls-2,.cls-3,.cls-5,.cls-6,.cls-8,.cls-9{stroke:#f5454e;stroke-miterlimit:10;}.cls-2{stroke-width:3px;}.cls-4{fill:#f2f2f2;}.cls-5{stroke-width:2px;}.cls-6,.cls-8,.cls-9{fill:none;}.cls-7{fill:#f5454e;}.cls-8{stroke-width:0.75px;}.cls-9{stroke-width:0.5px;}</style></defs><title>Asset 3</title><g id="Layer_2" data-name="Layer 2"><g id="Layer_1-2" data-name="Layer 1"><path id="Body" class="cls-1" d="M582.43,368s-36,93-103,97c-67-4-103-97-103-97s-32-73-14-125,117-51,117-51,99-1,117,51S582.43,368,582.43,368Z"/><path id="Head" class="cls-1" d="M550.18,179.55A507.55,507.55,0,0,1,479.43,185a507.42,507.42,0,0,1-70.75-5.45,14.56,14.56,0,0,1-12.08-17.64C418.39,66.3,479.43,67.5,479.43,67.5s61-1.2,82.83,94.41A14.58,14.58,0,0,1,550.18,179.55Z"/><path class="cls-1" d="M615.93,105.5h146a0,0,0,0,1,0,0v23a23,23,0,0,1-23,23h-123a23,23,0,0,1-23-23v0A23,23,0,0,1,615.93,105.5Z" transform="translate(1354.85 257) rotate(180)"/><path class="cls-1" d="M568.93,21.5h78a0,0,0,0,1,0,0v23a23,23,0,0,1-23,23h-55a23,23,0,0,1-23-23v0a23,23,0,0,1,23-23Z" transform="translate(1192.85 89) rotate(180)"/><path class="cls-1" d="M220.93,105.5h123a23,23,0,0,1,23,23v23a0,0,0,0,1,0,0h-146a23,23,0,0,1-23-23v0A23,23,0,0,1,220.93,105.5Z"/><path class="cls-1" d="M396.23,0h0a32.5,32.5,0,0,1,32.5,32.5V65a0,0,0,0,1,0,0h-32.5a32.5,32.5,0,0,1-32.5-32.5v0A32.5,32.5,0,0,1,396.23,0Z"/><path class="cls-1" d="M652.43,185h25a0,0,0,0,1,0,0v25a25,25,0,0,1-25,25h0a25,25,0,0,1-25-25v0A25,25,0,0,1,652.43,185Z" transform="translate(1304.85 420) rotate(-180)"/><path class="cls-1" d="M306.93,199.07h0a17.5,17.5,0,0,1,17.5,17.5v17.5a0,0,0,0,1,0,0h-17.5a17.5,17.5,0,0,1-17.5-17.5v0a17.5,17.5,0,0,1,17.5-17.5Z"/><line class="cls-2" x1="229.93" y1="120.5" x2="334.93" y2="120.5"/><line class="cls-2" x1="614.93" y1="120.5" x2="694.93" y2="120.5"/><line class="cls-3" x1="229.93" y1="130.5" x2="292.93" y2="130.5"/><line class="cls-3" x1="564.93" y1="46.5" x2="572.93" y2="46.5"/><line class="cls-2" x1="564.93" y1="36.5" x2="598.93" y2="36.5"/><line class="cls-3" x1="614.93" y1="130.5" x2="654.93" y2="130.5"/><path class="cls-4" d="M479.43,465c-67-4-103-97-103-97s-32-73-14-125c7.54-21.78,29.29-34.27,52-41.42,0,0-19.49,2-34.81,44.17-3.4,8.85-6.63,37.28,3.58,79.66s28.42,73.7,38.47,86.47c7.49,11.74,28.25,32.51,49.53,39.49,19.23,9.19,50.13-1.5,50.13-1.5C498.89,465,479.43,465,479.43,465Z"/><path class="cls-4" d="M479.67,184.9a505.76,505.76,0,0,1-70.75-5.46,14.57,14.57,0,0,1-12.08-17.64c21.8-95.61,83.35-94.2,83.35-94.2s-29.68,9.78-44.29,26.77c-5.49,6.38-13.53,19.4-19,33.19a131.89,131.89,0,0,0-8.68,35.62C407.19,175.91,487.37,184.9,479.67,184.9Z"/><path id="Body-2" data-name="Body" class="cls-1" d="M819.73,363.39S803.55,405.18,773.44,407c-30.11-1.8-46.29-43.59-46.29-43.59s-14.38-32.81-6.29-56.18,52.58-22.92,52.58-22.92,44.49-.45,52.58,22.92S819.73,363.39,819.73,363.39Z"/><path id="Head-2" data-name="Head" class="cls-1" d="M805.23,278.69a207.54,207.54,0,0,1-63.59,0,6.55,6.55,0,0,1-5.43-7.93c9.8-43,37.23-42.42,37.23-42.42s27.43-.54,37.22,42.42A6.54,6.54,0,0,1,805.23,278.69Z"/><path class="cls-1" d="M834.78,245.41H900.4a0,0,0,0,1,0,0v10.34a10.34,10.34,0,0,1-10.34,10.34H834.78a10.34,10.34,0,0,1-10.34-10.34v0a10.34,10.34,0,0,1,10.34-10.34Z" transform="translate(1724.84 511.5) rotate(-180)"/><path class="cls-1" d="M813.66,207.66h35.05a0,0,0,0,1,0,0V218a10.34,10.34,0,0,1-10.34,10.34H813.66A10.34,10.34,0,0,1,803.32,218v0a10.34,10.34,0,0,1,10.34-10.34Z" transform="translate(1652.04 436) rotate(-180)"/><line class="cls-2" x1="834.33" y1="252.15" x2="870.29" y2="252.15"/><line class="cls-3" x1="811.86" y1="218.9" x2="815.46" y2="218.9"/><line class="cls-2" x1="811.86" y1="214.4" x2="827.14" y2="214.4"/><line class="cls-3" x1="834.33" y1="256.65" x2="852.31" y2="256.65"/><path class="cls-4" d="M773.44,407c-30.11-1.8-46.29-43.59-46.29-43.59s-14.38-32.81-6.29-56.18c3.38-9.79,13.16-15.4,23.38-18.62,0,0-8.76.88-15.64,19.85-1.53,4-3,16.76,1.6,35.8S743,377.37,747.49,383.1c3.37,5.28,12.7,14.62,22.26,17.75,8.65,4.13,22.53-.67,22.53-.67C782.18,407,773.44,407,773.44,407Z"/><path class="cls-4" d="M773.55,281.1a226.81,226.81,0,0,1-31.8-2.46,6.55,6.55,0,0,1-5.43-7.92c9.8-43,37.46-42.34,37.46-42.34s-13.34,4.4-19.9,12a60,60,0,0,0-12.45,30.92C741,277.06,777,281.1,773.55,281.1Z"/><path id="Body-3" data-name="Body" class="cls-1" d="M184.72,375.22s-17.29,44.68-49.48,46.6c-32.19-1.92-49.49-46.6-49.49-46.6S70.38,340.15,79,315.17s56.21-24.5,56.21-24.5,47.56-.48,56.21,24.5S184.72,375.22,184.72,375.22Z"/><path id="Head-3" data-name="Head" class="cls-1" d="M169.23,284.68a243,243,0,0,1-34,2.62,242.89,242.89,0,0,1-34-2.62,7,7,0,0,1-5.81-8.47c10.48-45.93,39.8-45.35,39.8-45.35s29.32-.58,39.79,45.35A7,7,0,0,1,169.23,284.68Z"/><path class="cls-1" d="M178.23,208.76h37.47a0,0,0,0,1,0,0v11a11,11,0,0,1-11,11H178.23a11,11,0,0,1-11-11v0A11,11,0,0,1,178.23,208.76Z" transform="translate(382.89 439.61) rotate(180)"/><path class="cls-1" d="M11,249.11H70.14a11,11,0,0,1,11,11v11a0,0,0,0,1,0,0H11a11,11,0,0,1-11-11v0a11,11,0,0,1,11-11Z"/><path class="cls-1" d="M95.27,198.43h0A15.61,15.61,0,0,1,110.88,214v15.61a0,0,0,0,1,0,0H95.27A15.61,15.61,0,0,1,79.65,214v0A15.61,15.61,0,0,1,95.27,198.43Z"/><path class="cls-1" d="M52.37,294.07h0a8.41,8.41,0,0,1,8.41,8.41v8.41a0,0,0,0,1,0,0H52.37A8.41,8.41,0,0,1,44,302.47v0a8.41,8.41,0,0,1,8.41-8.41Z"/><line class="cls-5" x1="15.37" y1="256.32" x2="65.82" y2="256.32"/><line class="cls-3" x1="15.37" y1="261.12" x2="45.64" y2="261.12"/><line class="cls-3" x1="176.31" y1="220.77" x2="180.16" y2="220.77"/><line class="cls-5" x1="176.31" y1="215.96" x2="192.65" y2="215.96"/><path class="cls-4" d="M135.24,421.82c-32.19-1.92-49.49-46.6-49.49-46.6S70.38,340.15,79,315.17c3.62-10.47,14.07-16.46,25-19.9,0,0-9.37.94-16.73,21.22-1.63,4.25-3.18,17.91,1.72,38.27s13.66,35.41,18.48,41.54c3.6,5.64,13.58,15.62,23.8,19,9.24,4.42,24.08-.72,24.08-.72C144.59,421.82,135.24,421.82,135.24,421.82Z"/><path class="cls-4" d="M135.36,287.25a244.69,244.69,0,0,1-34-2.61,7,7,0,0,1-5.81-8.48c10.48-45.93,40-45.25,40-45.25s-14.25,4.69-21.27,12.85A64.19,64.19,0,0,0,101,276.82C100.53,282.94,139.06,287.25,135.36,287.25Z"/><rect class="cls-2" x="439.4" y="108.55" width="82" height="29" rx="14.5"/><circle class="cls-1" cx="454.9" cy="123.05" r="9.5"/><circle class="cls-1" cx="504.9" cy="123.05" r="9.5"/><rect class="cls-2" x="753.4" y="248.55" width="41" height="14.5" rx="7.25"/><circle class="cls-1" cx="761.15" cy="255.8" r="4.75"/><circle class="cls-1" cx="786.15" cy="255.8" r="4.75"/><rect class="cls-2" x="115.4" y="251.55" width="40" height="14.15" rx="7.07"/><circle class="cls-1" cx="122.96" cy="258.63" r="4.63"/><circle class="cls-1" cx="147.35" cy="258.63" r="4.63"/><path class="cls-6" d="M493.6,294.09c1.15-2.21,1.87-8.64,1.87-8.64l-6.1-2.85a16,16,0,0,0-.2-4.15l5.62-3.7c-.19-2.94-2.73-8.67-2.73-8.67l-6.79.51a28.07,28.07,0,0,0-2.2-3.43l3.14-6c-1.82-2.48-6.71-6-6.71-6L473.87,255c-.34-.32-3.6-1.86-3.6-1.86l-.25-6.71c-3-1.26-8.86-1.92-8.86-1.92l-3,6.13a32.71,32.71,0,0,0-4,.25l-3.64-5.75a41.41,41.41,0,0,0-8.61,2.8l.46,6.8c-.6.36-3.38,2.2-3.38,2.2l-6-3.15a44.77,44.77,0,0,0-6.07,6.75l3.82,5.61a39.47,39.47,0,0,0-1.85,3.64l-6.67.19a32.14,32.14,0,0,0-2,8.91l6.13,3a32.32,32.32,0,0,0,.29,4L421,289.53a36.32,36.32,0,0,0,2.75,8.52l6.86-.51a21.85,21.85,0,0,0,2.17,3.38l-3.16,6a27.48,27.48,0,0,0,6.74,6.06l5.61-3.76c.32.22,3.59,1.85,3.59,1.85l.25,6.64a38,38,0,0,0,8.85,2l3-6.25a23.79,23.79,0,0,0,4.05-.09l3.61,5.62c2.13,0,8.64-2.72,8.64-2.72l-.51-6.81c.81-.38,3.4-2.17,3.4-2.17l6,3.15a31.34,31.34,0,0,0,6-6.77L485,298.05a32.32,32.32,0,0,0,1.92-3.66ZM457.89,304.3A22.08,22.08,0,1,1,480,282.22,22.07,22.07,0,0,1,457.89,304.3Z"/><path class="cls-7" d="M457.89,260.15A22.08,22.08,0,1,0,480,282.22,22.07,22.07,0,0,0,457.89,260.15Zm0,37.58a15.65,15.65,0,1,1,15.65-15.65A15.66,15.66,0,0,1,457.89,297.73Z"/><path class="cls-6" d="M473.54,282.08a15.66,15.66,0,1,1-15.65-15.65A15.65,15.65,0,0,1,473.54,282.08Z"/><path class="cls-6" d="M540.33,314.77c.49-2,0-6.23,0-6.23l-4.53-1.09a18.69,18.69,0,0,0-.71-2.69l3.29-3.23a27.77,27.77,0,0,0-3.1-5.35l-4.48,1.31c-.15-.27-2-2-2-2l1.24-4.43a29.71,29.71,0,0,0-5.37-3.11l-3.22,3.37a22.4,22.4,0,0,0-2.66-.68l-1.17-4.5a28.39,28.39,0,0,0-6.19,0l-1.13,4.53c-.46.11-2.67.73-2.67.73l-3.23-3.31a30.54,30.54,0,0,0-5.36,3.13l1.31,4.46a25.39,25.39,0,0,0-2,2l-4.39-1.27a22,22,0,0,0-3.16,5.39l3.37,3.22a22,22,0,0,0-.65,2.68l-4.5,1.19a24.82,24.82,0,0,0,0,6.13l4.58,1.11a14.3,14.3,0,0,0,.7,2.66l-3.32,3.24a19,19,0,0,0,3.12,5.37l4.45-1.28c.16.22,1.95,2,1.95,2l-1.23,4.38a25.52,25.52,0,0,0,5.36,3.13l3.25-3.45a16.23,16.23,0,0,0,2.66.79l1.18,4.42c1.39.42,6.2,0,6.2,0l1.09-4.54c.61-.08,2.68-.7,2.68-.7l3.22,3.3a21.66,21.66,0,0,0,5.36-3.14l-1.33-4.44a22.54,22.54,0,0,0,2-2l4.41,1.2c1.22-1.2,3-5.23,3-5.23l-3.38-3.14a10.75,10.75,0,0,0,.75-2.75Zm-11.24,1.76a15.11,15.11,0,1,1-9.75-19A15.11,15.11,0,0,1,529.09,316.53Z"/><path class="cls-7" d="M519.34,297.51a15.12,15.12,0,1,0,9.75,19A15.11,15.11,0,0,0,519.34,297.51Zm5.6,17.58A10.72,10.72,0,1,1,518,301.6,10.73,10.73,0,0,1,524.94,315.09Z"/><path class="cls-6" d="M524.94,315.09A10.72,10.72,0,1,1,518,301.6,10.73,10.73,0,0,1,524.94,315.09Z"/><path class="cls-8" d="M155.38,353.66a21.33,21.33,0,0,0,1-4.72l-3.34-1.56a8.48,8.48,0,0,0-.11-2.26l3.07-2a20.31,20.31,0,0,0-1.49-4.74l-3.7.28a15.45,15.45,0,0,0-1.21-1.87l1.72-3.26a22.35,22.35,0,0,0-3.66-3.3l-3.08,2.09c-.19-.17-2-1-2-1l-.14-3.67a24.21,24.21,0,0,0-4.84-1.05L136,329.93a15.8,15.8,0,0,0-2.18.12l-2-3.13a22.23,22.23,0,0,0-4.69,1.53l.25,3.7-1.85,1.21-3.26-1.72a24.71,24.71,0,0,0-3.31,3.69l2.09,3.06a20.94,20.94,0,0,0-1,2l-3.65.12a17.41,17.41,0,0,0-1.08,4.85L118.7,347a17.31,17.31,0,0,0,.16,2.2l-3.13,2a20,20,0,0,0,1.5,4.65l3.76-.29a11.09,11.09,0,0,0,1.18,1.85l-1.73,3.28a15.19,15.19,0,0,0,3.68,3.32l3.06-2.06c.18.11,2,1,2,1l.13,3.61a20.14,20.14,0,0,0,4.83,1.07l1.63-3.41a12.62,12.62,0,0,0,2.21,0l2,3.07a24.81,24.81,0,0,0,4.72-1.49l-.28-3.72c.45-.21,1.86-1.18,1.86-1.18l3.25,1.72a17.18,17.18,0,0,0,3.3-3.7l-2.09-3a18.17,18.17,0,0,0,1-2Zm-19.51,5.57a12.06,12.06,0,1,1,12.06-12.05A12,12,0,0,1,135.87,359.23Z"/><path class="cls-7" d="M135.87,335.12a12.06,12.06,0,1,0,12.06,12.06A12.05,12.05,0,0,0,135.87,335.12Zm0,20.53a8.55,8.55,0,1,1,8.55-8.55A8.55,8.55,0,0,1,135.87,355.65Z"/><circle class="cls-9" cx="135.87" cy="347.1" r="8.55" transform="matrix(0.92, -0.38, 0.38, 0.92, -122.49, 78.42)"/><path class="cls-9" d="M793.37,339.46a21.36,21.36,0,0,0,1-4.76L791,333.13a8.52,8.52,0,0,0-.11-2.26l3.09-2a20.55,20.55,0,0,0-1.5-4.77l-3.73.27a16.1,16.1,0,0,0-1.22-1.87l1.73-3.28a22.3,22.3,0,0,0-3.67-3.32l-3.11,2.1c-.19-.17-2-1-2-1l-.15-3.69a24,24,0,0,0-4.86-1.06l-1.64,3.37a19.28,19.28,0,0,0-2.2.13l-2-3.14a21.86,21.86,0,0,0-4.73,1.53l.25,3.74c-.32.19-1.86,1.2-1.86,1.2l-3.28-1.73a24.59,24.59,0,0,0-3.34,3.71l2.11,3.09a20.71,20.71,0,0,0-1,2l-3.66.1a17.7,17.7,0,0,0-1.08,4.89l3.37,1.64a20.58,20.58,0,0,0,.14,2.22l-3.13,2a19.34,19.34,0,0,0,1.51,4.69l3.76-.28a12.43,12.43,0,0,0,1.2,1.86l-1.74,3.29a15.31,15.31,0,0,0,3.7,3.34l3.09-2.08c.18.14,2,1,2,1l.14,3.65A20.66,20.66,0,0,0,772,353.5l1.64-3.42a13.52,13.52,0,0,0,2.23-.06l2,3.09a24.53,24.53,0,0,0,4.75-1.49l-.28-3.75c.44-.21,1.86-1.19,1.86-1.19l3.28,1.73a17.19,17.19,0,0,0,3.32-3.72l-2.11-3.06a19.75,19.75,0,0,0,1.06-2Zm-19.63,4.66A11.26,11.26,0,1,1,785,332.86,11.26,11.26,0,0,1,773.74,344.12Z"/><path class="cls-7" d="M773.74,321.6A11.26,11.26,0,1,0,785,332.86,11.25,11.25,0,0,0,773.74,321.6Zm0,19.85a8.6,8.6,0,1,1,8.61-8.59A8.6,8.6,0,0,1,773.74,341.45Z"/><path class="cls-9" d="M782.35,332.86a8.61,8.61,0,1,1-8.61-8.61A8.6,8.6,0,0,1,782.35,332.86Z"/></g></g></svg>