<svg xmlns="http://www.w3.org/2000/svg" width="22.909" height="17.981" viewBox="0 0 22.909 17.981"><g transform="translate(5.159 -442.188)"><path d="M13.364,19.636V18.091A3.091,3.091,0,0,0,10.273,15H4.091A3.091,3.091,0,0,0,1,18.091v1.545" transform="translate(-1 437.273)" fill="none" stroke="#2d364f" stroke-linecap="round" stroke-linejoin="round" stroke-width="1.5"/><circle cx="3" cy="3" r="3" transform="translate(3 443)" fill="none" stroke="#2d364f" stroke-linecap="round" stroke-linejoin="round" stroke-width="1.5"/><path d="M22.318,19.666V18.12A3.091,3.091,0,0,0,20,15.13" transform="translate(-5.318 437.243)" fill="none" stroke="#2d364f" stroke-linecap="round" stroke-linejoin="round" stroke-width="1.5"/><path d="M16,3.13a3.091,3.091,0,0,1,0,5.989" transform="translate(-4.409 439.97)" fill="none" stroke="#2d364f" stroke-linecap="round" stroke-linejoin="round" stroke-width="1.5"/><path d="M20,19.666V18.12a3.091,3.091,0,0,1,2.318-2.99" transform="translate(-24.409 437.243)" fill="none" stroke="#2d364f" stroke-linecap="round" stroke-linejoin="round" stroke-width="1.5"/><path d="M18.324,3.13a3.091,3.091,0,0,0,0,5.989" transform="translate(-17.324 439.97)" fill="none" stroke="#2d364f" stroke-linecap="round" stroke-linejoin="round" stroke-width="1.5"/><path d="M104.106,452.641l-1.95,1.478,1.95,1.4" transform="translate(-100 3)" fill="none" stroke="#2d364f" stroke-linecap="round" stroke-linejoin="round" stroke-width="1"/><path d="M102.156,452.641l1.95,1.478-1.95,1.4" transform="translate(-94 3)" fill="none" stroke="#2d364f" stroke-linecap="round" stroke-linejoin="round" stroke-width="1"/><path d="M105.622,451.472l-1.462,5.2" transform="matrix(0.998, 0.07, -0.07, 0.998, -66.77, -3.415)" fill="none" stroke="#2d364f" stroke-linecap="round" stroke-width="1"/></g></svg>