<svg xmlns="http://www.w3.org/2000/svg" width="17.58" height="17.61" viewBox="0 0 17.58 17.61"><g transform="translate(2.75 -717.172)"><path d="M12.022,4.064A3.83,3.83,0,0,1,15.048,7.09M12.022,1a6.894,6.894,0,0,1,6.09,6.082m-.766,6.113v2.3a1.532,1.532,0,0,1-1.67,1.532,15.159,15.159,0,0,1-6.61-2.352,14.937,14.937,0,0,1-4.6-4.6A15.159,15.159,0,0,1,2.118,3.436a1.532,1.532,0,0,1,1.524-1.67h2.3A1.532,1.532,0,0,1,7.472,3.083a9.835,9.835,0,0,0,.536,2.152,1.532,1.532,0,0,1-.345,1.616l-.973.973a12.256,12.256,0,0,0,4.6,4.6l.973-.973a1.532,1.532,0,0,1,1.616-.345,9.835,9.835,0,0,0,2.152.536A1.532,1.532,0,0,1,17.346,13.194Z" transform="translate(-4.112 717)" fill="none" stroke="#2d364f" stroke-linecap="round" stroke-linejoin="round" stroke-width="1.5"/></g></svg>